<svg width="113" height="14" fill="none" xmlns="http://www.w3.org/2000/svg"><path fill-rule="evenodd" clip-rule="evenodd" d="M30.118 8.245c-4.854 1.265-10.46 2.524-15.852 2.838-4.608.268-9.06-.148-12.704-1.922-.513-.25-1.156-.078-1.434.384s-.087 1.04.427 1.29c3.974 1.934 8.821 2.44 13.848 2.147 5.49-.32 11.196-1.587 16.148-2.87.574 1.046 1.764 2.021 3.86 2.741 3.22 1.106 7.615 1.092 12.246.469 6.716-.903 13.941-3.057 18.586-4.588.19-.062.474-.161.822-.292.106.21.224.417.355.62 1.14 1.772 3.155 3.204 5.209 3.715 13.025 3.244 28.226-.643 40.603-3.805.559-.144.885-.67.729-1.176-.161-.505-.746-.798-1.309-.655-12.03 3.075-26.8 6.954-39.46 3.802-1.558-.388-3.074-1.489-3.938-2.833a5.354 5.354 0 01-.263-.46c1.707-.76 3.714-1.819 4.794-2.953 1.11-1.163 1.384-2.404.419-3.576-.83-1.003-2.088-1.088-3.396-.568-1.41.556-2.863 1.857-3.333 2.468-.88 1.14-1.16 2.377-.999 3.583-.415.158-.752.275-.96.343-4.543 1.497-11.605 3.61-18.172 4.493-4.226.568-8.24.644-11.177-.364-1.253-.43-2.081-.933-2.53-1.516a638.65 638.65 0 002.558-.697c1.615-.443 4.979-1.175 7.382-2.481 1.91-1.038 3.207-2.45 3.131-4.222-.038-.91-.624-1.516-1.556-1.857-1.393-.508-3.801-.262-4.698-.09-2.72.518-6.35 2.664-8.147 5.082-.717.965-1.143 1.974-1.189 2.95zm2.235-.595c.768-.208 1.511-.412 2.225-.607 1.508-.414 4.66-1.07 6.903-2.29 1.188-.645 2.159-1.419 2.112-2.52-.004-.085-.099-.11-.182-.145a2.16 2.16 0 00-.434-.12c-1.066-.195-2.498-.006-3.084.106-2.282.435-5.318 2.249-6.825 4.278-.319.428-.572.865-.715 1.298zm35.215-1.922c.995-.46 2.037-1.017 2.858-1.622.436-.322.805-.653 1.037-.996.195-.284.272-.575.039-.856-.093-.113-.233-.116-.377-.094a2.11 2.11 0 00-.466.134c-1.033.409-2.1 1.364-2.443 1.812a3.026 3.026 0 00-.648 1.622z" fill="#AA84CF"/></svg>