<svg width="61" height="84" viewBox="0 0 61 84" fill="none" xmlns="http://www.w3.org/2000/svg">
<path d="M30.1366 1.35367C41.7137 8.09372 48.0791 20.1044 47.7626 30.5706C47.3702 43.5947 38.1209 53.6476 26.8764 60.5966C20.4713 64.555 13.3149 67.6854 6.01967 70.5627C4.14457 71.3035 5.71465 74.163 7.618 73.4201C21.4634 68.0013 35.2375 61.6135 43.6264 50.8063C51.2194 41.0226 53.9822 27.9802 46.8045 15.2851C43.375 9.217 37.7437 3.85305 30.8127 0.311028C30.0156 -0.0987524 29.3546 0.897435 30.1366 1.35367Z" fill="#7F56A7"/>
<path d="M8.26904 74.1098C12.0116 74.6506 15.7854 75.3107 19.514 76.1526C23.2541 76.9995 26.9633 78.1437 30.7068 78.8967C32.1484 79.1855 32.5404 77.5031 31.1707 76.9168C23.9772 73.8418 15.5328 72.86 8.12456 72.5944C7.10297 72.562 7.22893 73.9601 8.26904 74.1098Z" fill="#7F56A7"/>
<path d="M8.58783 71.4193C10.5837 66.6858 11.6371 61.2513 10.446 55.8076C10.1955 54.6705 8.30847 54.7745 8.43282 55.8544C9.04388 61.1607 9.25943 66.1752 7.82587 71.0986C7.71197 71.4842 8.42382 71.8047 8.58783 71.4193Z" fill="#7F56A7"/>
</svg>
