<svg width="113" height="14" viewBox="0 0 113 14" fill="none" xmlns="http://www.w3.org/2000/svg">
<path fill-rule="evenodd" clip-rule="evenodd" d="M30.1183 8.24455C25.2636 9.50971 19.6585 10.7688 14.2664 11.0832C9.65767 11.3515 5.20606 10.9347 1.56235 9.16145C1.04872 8.91177 0.405512 9.08341 0.127735 9.54548C-0.150466 10.0072 0.0409278 10.5853 0.554561 10.8354C4.5294 12.7693 9.37609 13.2751 14.4032 12.9821C19.8922 12.6623 25.5985 11.3949 30.5507 10.1115C31.1253 11.1578 32.3152 12.1333 34.4112 12.853C37.6306 13.9587 42.0263 13.945 46.6571 13.3219C53.3733 12.4187 60.598 10.2648 65.2432 8.7344C65.4337 8.67198 65.7174 8.57264 66.0647 8.44171C66.1705 8.65181 66.2891 8.85887 66.4203 9.06211C67.5594 10.8335 69.575 12.2657 71.6287 12.7773C84.6537 16.0209 99.8553 12.1344 112.232 8.97151C112.791 8.82802 113.117 8.30127 112.961 7.7962C112.8 7.29112 112.215 6.99767 111.652 7.14116C99.6224 10.2158 84.8527 14.0949 72.1918 10.9431C70.6336 10.5549 69.1177 9.45414 68.2538 8.10981C68.1565 7.95985 68.0718 7.80647 67.9913 7.6508C69.6978 6.89071 71.7049 5.83109 72.7847 4.69686C73.8941 3.53409 74.1693 2.29291 73.2039 1.12062C72.3739 0.118465 71.1163 0.0332062 69.8079 0.552743C68.3978 1.1092 66.9454 2.41012 66.4754 3.02062C65.5946 4.16094 65.3152 5.39795 65.4761 6.60411C65.0611 6.76168 64.7241 6.8789 64.5161 6.94742C59.9726 8.44399 52.9109 10.5564 46.3438 11.4398C42.1182 12.0084 38.1044 12.0842 35.1666 11.0756C33.9136 10.6451 33.0858 10.1427 32.6365 9.55958C33.5232 9.32131 34.3782 9.08685 35.195 8.86305C36.8104 8.4204 40.1738 7.68772 42.5768 6.38184C44.4878 5.34352 45.7836 3.93107 45.7082 2.16045C45.6696 1.25079 45.084 0.643699 44.152 0.303431C42.7593 -0.204688 40.3508 0.0411827 39.4539 0.212459C36.7338 0.730854 33.1032 2.87676 31.3069 5.2948C30.5901 6.25965 30.1637 7.26904 30.1183 8.24455ZM32.3528 7.65003C33.1214 7.44222 33.8641 7.2382 34.5776 7.04257C36.0855 6.62922 39.2376 5.97266 41.4814 4.75317C42.6695 4.10765 43.6397 3.33426 43.5927 2.23314C43.5888 2.14751 43.4944 2.12315 43.411 2.08814C43.2818 2.03447 43.1341 1.99754 42.9765 1.96861C41.9107 1.77298 40.4791 1.96214 39.8931 2.07404C37.6107 2.50908 34.5746 4.3227 33.0676 6.35175C32.7492 6.78033 32.4955 7.21689 32.3528 7.65003ZM67.5679 5.72794C68.563 5.26778 69.6046 4.71131 70.4261 4.10575C70.8622 3.78414 71.2306 3.4534 71.4635 3.11008C71.6583 2.82614 71.7345 2.53534 71.5016 2.25445C71.4085 2.14064 71.2688 2.13837 71.1248 2.15969C70.9723 2.18252 70.8157 2.23123 70.659 2.29403C69.6258 2.70281 68.5587 3.65777 68.2158 4.10575C67.8135 4.62529 67.6144 5.17491 67.5679 5.72794Z" fill="#AA84CF"/>
</svg>
