<svg width="61" height="84" fill="none" xmlns="http://www.w3.org/2000/svg"><path d="M30.137 1.354c11.577 6.74 17.942 18.75 17.626 29.217-.393 13.024-9.642 23.077-20.887 30.026-6.405 3.958-13.561 7.088-20.856 9.966-1.875.74-.305 3.6 1.598 2.857 13.845-5.419 27.62-11.806 36.008-22.614 7.593-9.783 10.356-22.826 3.178-35.52C43.375 9.216 37.744 3.852 30.813.31c-.797-.41-1.458.586-.676 1.043z" fill="#7F56A7"/><path d="M8.269 74.11c3.743.54 7.516 1.2 11.245 2.043 3.74.846 7.45 1.99 11.193 2.744 1.441.288 1.833-1.394.464-1.98-7.194-3.075-15.638-4.057-23.046-4.323-1.022-.032-.896 1.366.144 1.516zm.319-2.69c1.996-4.734 3.05-10.169 1.858-15.612-.25-1.138-2.138-1.033-2.013.046.61 5.307.826 10.321-.607 15.245-.114.385.598.706.762.32z" fill="#7F56A7"/></svg>